<svg xmlns="http://www.w3.org/2000/svg" width="1600" height="1000" viewBox="0 0 1600 1000" role="img" aria-label="Football field under stadium lights">
  <defs>
    <linearGradient id="bg" x1="0" y1="0" x2="1" y2="1">
      <stop offset="0%" stop-color="#0d3b1f"/>
      <stop offset="100%" stop-color="#1f8b46"/>
    </linearGradient>
    <radialGradient id="glow" cx="0.5" cy="0.08" r="0.7">
      <stop offset="0%" stop-color="#dcfce7" stop-opacity="0.6"/>
      <stop offset="100%" stop-color="#dcfce7" stop-opacity="0"/>
    </radialGradient>
  </defs>
  <rect width="1600" height="1000" fill="url(#bg)"/>
  <rect width="1600" height="1000" fill="url(#glow)"/>
  <g opacity="0.18">
    <rect x="0" y="0" width="1600" height="125" fill="#ffffff"/>
    <rect x="0" y="250" width="1600" height="125" fill="#ffffff"/>
    <rect x="0" y="500" width="1600" height="125" fill="#ffffff"/>
    <rect x="0" y="750" width="1600" height="125" fill="#ffffff"/>
  </g>
  <g fill="none" stroke="#f8fafc" stroke-width="10">
    <rect x="90" y="90" width="1420" height="820" rx="16"/>
    <line x1="800" y1="90" x2="800" y2="910"/>
    <circle cx="800" cy="500" r="110"/>
    <circle cx="800" cy="500" r="6" fill="#f8fafc"/>
    <rect x="90" y="300" width="220" height="400"/>
    <rect x="1290" y="300" width="220" height="400"/>
    <rect x="90" y="390" width="70" height="220"/>
    <rect x="1440" y="390" width="70" height="220"/>
    <path d="M310 420a110 110 0 0 1 0 160"/>
    <path d="M1290 420a110 110 0 0 0 0 160"/>
  </g>
  <g fill="#f8fafc" font-family="'Segoe UI', Arial, sans-serif">
    <text x="100" y="145" font-size="30" font-weight="700" opacity="0.86">CENTURY BLOG</text>
    <text x="100" y="865" font-size="84" font-weight="800">CHAMPIONS LEAGUE</text>
    <text x="100" y="935" font-size="46" font-weight="600" opacity="0.92">Title race update and key contenders</text>
  </g>
</svg>
