<svg xmlns="http://www.w3.org/2000/svg" width="1600" height="1000" viewBox="0 0 1600 1000" role="img" aria-label="Lifestyle energy and focus illustration">
  <defs>
    <linearGradient id="bg" x1="0" y1="0" x2="1" y2="1">
      <stop offset="0%" stop-color="#2f1234"/>
      <stop offset="100%" stop-color="#ff7a59"/>
    </linearGradient>
  </defs>
  <rect width="1600" height="1000" fill="url(#bg)"/>
  <circle cx="1180" cy="220" r="180" fill="rgba(255,255,255,0.14)"/>
  <circle cx="360" cy="760" r="220" fill="rgba(255,255,255,0.08)"/>
  <rect x="120" y="140" width="1360" height="720" rx="42" fill="rgba(11,15,25,0.18)" stroke="rgba(255,255,255,0.18)"/>
  <g fill="#fff">
    <rect x="210" y="280" width="120" height="300" rx="28" opacity="0.18"/>
    <rect x="370" y="220" width="120" height="360" rx="28" opacity="0.28"/>
    <rect x="530" y="340" width="120" height="240" rx="28" opacity="0.18"/>
    <path d="M840 300c-70 0-126 56-126 126s56 126 126 126 126-56 126-126-56-126-126-126zm0 52c41 0 74 33 74 74s-33 74-74 74-74-33-74-74 33-74 74-74z" opacity="0.92"/>
    <path d="M1090 328l54 108 120 18-87 85 21 120-108-57-108 57 21-120-87-85 120-18z" opacity="0.92"/>
  </g>
  <g fill="#fff" font-family="'Segoe UI', Arial, sans-serif">
    <text x="180" y="214" font-size="28" font-weight="700" opacity="0.84">CENTURY BLOG | LIFESTYLE</text>
    <text x="180" y="700" font-size="84" font-weight="800">ENERGY AND FOCUS</text>
    <text x="180" y="778" font-size="42" font-weight="600" opacity="0.92">Small daily changes helping busy Nigerians stay sharp</text>
  </g>
</svg>
